<svg width="20" height="22" viewBox="0 0 20 22" fill="none" xmlns="http://www.w3.org/2000/svg">
<path d="M3.12843 21.3818L0.751953 21.3818L0.751953 21.2542C0.751953 10.0256 9.18845 0.966215 19.645 0.966215L19.7638 0.966215L19.7638 3.51817L19.645 3.51817C10.4955 3.51817 3.12843 11.4292 3.12843 21.3818ZM7.88139 21.3818L5.50491 21.3818C5.50491 17.3209 7.00718 13.4263 9.68124 10.5548C12.3553 7.68331 15.9821 6.07012 19.7638 6.07012L19.7638 8.62207C18.2034 8.62207 16.6582 8.95211 15.2166 9.59335C13.775 10.2346 12.465 11.1745 11.3617 12.3593C10.2583 13.5442 9.38303 14.9508 8.78588 16.4989C8.18874 18.047 7.88139 19.7062 7.88139 21.3818ZM12.6343 21.3818L10.2579 21.3818C10.2579 18.6746 11.2594 16.0782 13.0421 14.1638C14.8248 12.2495 17.2427 11.174 19.7638 11.174L19.7638 13.726C17.8729 13.726 16.0595 14.5326 14.7225 15.9683C13.3855 17.4041 12.6343 19.3514 12.6343 21.3818ZM15.0108 21.3818C15.0108 20.0282 15.5116 18.73 16.4029 17.7728C17.2943 16.8157 18.5032 16.2779 19.7638 16.2779L19.7638 21.3818L15.0108 21.3818Z" fill="white"/>
</svg>
