<svg width="62" height="22" viewBox="0 0 62 22" fill="none" xmlns="http://www.w3.org/2000/svg">
<path d="M56.5963 21.0873L56.0301 18.1275H49.7042L48.6977 21.0662L43.6274 21.0767C46.0412 15.0077 48.4602 8.94088 50.8843 2.87633C51.297 1.84765 52.0293 1.32411 53.1087 1.32937C53.9341 1.33726 55.2803 1.33726 57.1499 1.332L61.0702 21.0794L56.5963 21.0873ZM51.1284 14.0733H55.2048L53.6824 6.65427L51.1284 14.0733ZM18.4446 1.32674L23.5425 1.332L15.6616 21.0899L10.5007 21.0846C9.20293 15.8658 7.9213 10.6426 6.65583 5.41512C6.40421 4.3733 5.90598 3.64454 4.94729 3.2999C3.53119 2.80378 2.10852 2.32842 0.679688 1.87396L0.679688 1.33463H8.82486C10.234 1.33463 11.0568 2.0476 11.321 3.51037C11.5877 4.97577 12.2571 8.70635 13.334 14.7021L18.4446 1.32674ZM30.5478 1.332L26.5168 21.0846L21.6654 21.0794L25.6914 1.32674L30.5478 1.332ZM40.3865 0.966309C41.8384 0.966309 43.6677 1.43987 44.7195 1.87396L43.869 5.97024C42.9178 5.57035 41.3527 5.03102 40.0367 5.04943C38.1243 5.08363 36.9417 5.92289 36.9417 6.72793C36.9417 8.03811 38.995 8.69846 41.1086 10.1297C43.5217 11.7608 43.8388 13.2262 43.8086 14.8179C43.7759 18.1223 41.1086 21.3819 35.4823 21.3819C32.9157 21.3425 31.9897 21.1162 29.8961 20.3401L30.7819 16.0649C32.9131 16.9989 33.8165 17.2962 35.6383 17.2962C37.3065 17.2962 38.7383 16.5911 38.7509 15.3625C38.761 14.489 38.2476 14.0549 36.3755 12.9763C34.5034 11.895 31.8764 10.398 31.9117 7.39355C31.9544 3.5472 35.4395 0.966309 40.389 0.966309H40.3865Z" fill="white"/>
</svg>
