<svg width="527" height="19" viewBox="0 0 527 19" fill="none" xmlns="http://www.w3.org/2000/svg">
<path d="M22.8749 0.181396L44.7499 15.1814L66.6249 0.181396L88.4999 15.1814L110.375 0.181396L132.25 15.1814L154.125 0.181396L176 15.1814L197.875 0.181396L219.75 15.1814L241.625 0.181396L263.5 15.1814L285.375 0.181396L307.25 15.1814L329.125 0.181396L351 15.1814L372.875 0.181396L394.75 15.1814L416.625 0.181396L438.5 15.1814L460.375 0.181396L482.25 15.1814L504.125 0.181396L526.848 15.7631L525.152 18.2373L504.125 3.81896L482.25 18.819L460.375 3.81895L438.5 18.819L416.625 3.81895L394.75 18.819L372.875 3.81896L351.848 18.2373L351 17.0002L350.152 18.2373L329.125 3.81896L307.25 18.819L285.375 3.81895L263.5 18.819L241.625 3.81895L219.75 18.819L197.875 3.81896L176.848 18.2373L176 17.0002L175.152 18.2373L154.125 3.81896L132.25 18.819L110.375 3.81895L88.4999 18.819L66.6249 3.81895L44.7499 18.819L22.8749 3.81896L1.8482 18.2373L0.151611 15.7631L22.8749 0.181396Z" fill="white"/>
</svg>
