<svg width="189" height="313" viewBox="0 0 189 313" fill="none" xmlns="http://www.w3.org/2000/svg">
<path d="M168.138 168.108C170.938 179.182 180.261 188.586 179.75 199.997C179.279 210.527 172.963 217.446 164.535 222.563H60.5399C59.44 215.641 58.7091 208.535 55.3873 202.472C46.8138 186.831 25.2466 184.326 11.9947 172.386C-1.31996 160.388 -3.96333 138.27 6.14922 123.473C14.943 110.606 31.6042 103.309 36.5175 88.518C40.8808 75.377 34.3103 61.4321 28.9331 48.6718C23.5573 35.9115 19.6039 20.1081 28.0272 9.11878C35.4788 -0.601351 50.2173 -2.10394 61.5669 2.5001C72.9166 7.10414 81.5878 16.4362 89.5602 25.7333C97.5342 35.0304 105.467 44.7986 116.141 50.8046C127.923 57.4349 141.824 58.8106 154.878 62.3293C167.931 65.848 181.504 72.7672 186.427 85.3582C191.72 98.8917 185.306 113.948 178.608 126.844C171.909 139.742 164.577 154.019 168.138 168.108Z" fill="#A092EA"/>
<path d="M55.7104 49.1657L50.7364 44.1917H32.1724C28.353 44.1917 25.333 41.0829 25.333 37.3523V35.8423C25.333 32.0229 28.4418 29.0029 32.1724 29.0029H48.8711C52.6905 29.0029 55.7104 32.1117 55.7104 35.8423V49.1657Z" fill="#FDC500"/>
<path d="M35.1909 36.3751C35.1909 37.3522 34.3915 38.0628 33.5033 38.0628C32.5262 38.0628 31.8156 37.2634 31.8156 36.3751C31.8156 35.3981 32.6151 34.6875 33.5033 34.6875C34.4803 34.6875 35.1909 35.4869 35.1909 36.3751Z" fill="white"/>
<path d="M41.4985 36.3751C41.4985 37.3522 40.6991 38.0628 39.8109 38.0628C38.8338 38.0628 38.1232 37.2634 38.1232 36.3751C38.1232 35.3981 38.9226 34.6875 39.8109 34.6875C40.6991 34.6875 41.4985 35.4869 41.4985 36.3751Z" fill="white"/>
<path d="M46.0279 38.0628C45.0959 38.0628 44.3403 37.3072 44.3403 36.3751C44.3403 35.4431 45.0959 34.6875 46.0279 34.6875C46.96 34.6875 47.7156 35.4431 47.7156 36.3751C47.7156 37.3072 46.96 38.0628 46.0279 38.0628Z" fill="white"/>
<path d="M24.0001 28.8254C24.0001 30.7795 25.5989 32.3783 27.553 32.3783C29.5071 32.3783 31.106 30.7795 31.106 28.8254C31.106 26.8713 29.5071 25.2725 27.553 25.2725C25.5989 25.2725 24.0001 26.8713 24.0001 28.8254Z" fill="#D4007C"/>
<path d="M116.908 312.703C86.2483 312.703 61.3936 311.272 61.3936 309.506C61.3936 307.74 86.2483 306.308 116.908 306.308C147.568 306.308 172.422 307.74 172.422 309.506C172.422 311.272 147.568 312.703 116.908 312.703Z" fill="#002E55"/>
<path d="M75.1603 29.5358C70.8968 21.0976 75.6044 17.9888 77.0255 16.3012C80.312 11.7712 86.8849 8.3071 91.4149 8.75122C91.4149 8.75122 97.4548 6.70829 102.429 11.7712C103.228 12.5706 116.196 21.6305 98.0766 39.6616" fill="#002E55"/>
<path d="M100.033 11.8601C97.9896 11.3271 97.7231 9.37304 98.4337 7.77423C99.1443 6.17542 99.7661 3.4219 102.164 4.31013C102.875 4.5766 103.497 5.19836 103.941 5.82012C104.918 7.41893 105.717 6.08659 106.872 5.46483C108.382 4.66542 110.158 5.7313 111.313 6.97482C111.935 7.59658 112.468 8.30717 112.734 9.10657C113.178 10.7942 112.201 12.393 111.224 13.8142C110.425 15.0577 109.537 16.3012 108.115 16.7453C107.05 17.0118 105.895 16.7453 104.829 16.3901C103.852 16.1236 102.875 15.7683 102.075 15.2354C101.276 14.7024 100.565 13.8142 100.477 12.8371" fill="#002E55"/>
<path d="M87.7739 9.55076C86.8857 7.95194 86.7081 5.82019 85.1981 4.84314C84.1322 4.22138 82.8887 4.39902 81.734 4.57666C80.3128 4.75431 78.8028 5.10961 77.9146 6.17548C77.3817 6.79724 77.204 7.59665 77.0264 8.39606C76.7599 9.46193 76.6711 10.5278 77.0264 11.5049C77.5593 12.7484 78.8916 13.3701 80.1352 13.8143C80.6681 13.9919 81.201 14.2584 81.734 14.0807C82.5334 13.8143 82.7998 12.926 83.5104 12.3931" fill="#002E55"/>
<path d="M97.2778 27.9372C97.3666 28.2037 97.7219 28.3813 97.9884 28.2925C99.1431 27.8484 101.452 26.7825 102.874 29.7137C103.584 31.2236 103.051 33.0889 101.808 33.7995C100.831 34.4213 99.4095 34.9542 98.6101 34.8654C97.9884 36.4642 99.0542 47.5671 99.8537 48.4553C105.272 53.9623 106.515 53.8735 106.515 53.8735C106.515 53.8735 87.5073 83.8069 86.9743 58.67C86.9743 58.67 84.4873 43.6589 84.3985 43.7477C82.622 44.103 75.8714 44.103 74.8944 30.9572C74.0062 18.7884 82.3555 16.5679 84.4873 16.2126C86.3526 15.7684 92.4814 13.9032 97.2778 27.9372Z" fill="#F07F58"/>
<path d="M84.3988 43.6586L89.5505 42.5039L89.1953 43.1257C88.307 45.0798 85.82 45.3462 84.3988 43.6586Z" fill="#C2542D"/>
<path d="M78.2697 15.9462C76.9374 18.4332 79.7797 25.2726 85.5532 21.3644C87.5961 19.9432 90.172 25.7167 92.4814 26.6938C96.5673 28.3814 98.0773 27.4932 98.7878 25.7167C98.7878 25.8055 86.7079 0.0468559 78.2697 15.9462Z" fill="#002E55"/>
<path d="M78.8027 16.3901C78.8027 16.3901 77.8257 21.2754 74.4504 25.2724C74.4504 25.1836 71.2528 18.6995 78.8027 16.3901Z" fill="#002E55"/>
<path d="M98.076 31.4904C99.586 26.4274 101.718 30.158 101.718 30.158L98.076 31.4904Z" fill="#C2542D"/>
<path d="M86.1738 31.4016C84.6638 31.9345 83.8644 33.6222 84.3973 35.1321C84.9302 36.6421 86.6179 37.4415 88.1279 36.9086C89.6379 36.3757 90.4373 34.688 89.9043 33.178C89.3714 31.668 87.6838 30.8686 86.1738 31.4016Z" fill="#EE6A4F"/>
<path d="M76.4922 38.2406C77.6469 37.53 78.1799 36.1088 77.7357 34.7765C77.3805 33.7106 76.1369 33.2665 75.0711 33C75.1599 33 75.3375 36.3753 76.4922 38.2406Z" fill="#EE6A4F"/>
<path d="M84.1313 27.4043C84.7531 27.5819 82.799 26.6049 82.0884 26.6937C81.289 26.6937 80.4896 27.049 80.5784 27.7596C80.4896 27.6708 82.5325 26.8713 84.1313 27.4043Z" fill="black"/>
<path d="M74.9818 29.8025C74.5376 30.3355 74.9818 28.9143 75.6924 28.4702C76.3141 28.0261 77.2023 27.9372 77.5576 28.4702C77.5576 28.4702 75.9588 28.559 74.9818 29.8025Z" fill="black"/>
<path d="M82.2657 31.8457C82.4433 32.5562 82.3545 33.0892 81.9992 33.178C81.6439 33.2668 81.2886 32.8227 81.111 32.1121C80.9333 31.4015 81.0222 30.8686 81.3774 30.7798C81.6439 30.7798 82.088 31.2239 82.2657 31.8457Z" fill="black"/>
<path d="M78.0916 32.8224C78.2692 33.4441 78.1804 34.0659 77.8251 34.1547C77.5587 34.2435 77.1146 33.7994 76.9369 33.1776C76.7593 32.5559 76.8481 31.9341 77.2034 31.8453C77.4698 31.7565 77.9139 32.2006 78.0916 32.8224Z" fill="black"/>
<path d="M79.2452 30.5132L78.8011 34.9543L80.9329 34.5102L79.2452 30.5132Z" fill="#C2542D"/>
<path d="M82.4436 35.043L78.0025 36.02C78.0025 36.02 79.6013 38.3294 80.9336 37.53C82.266 36.7306 82.4436 35.043 82.4436 35.043Z" fill="white"/>
<path d="M98.789 9.90599C98.3449 9.28422 98.256 8.48482 98.3449 7.77424C98.4337 6.17542 98.789 4.48778 100.033 3.59955C100.743 3.06662 101.809 2.88897 102.697 3.06662C103.585 3.33309 104.385 3.95485 104.74 4.75426C104.918 5.19837 105.095 5.73131 105.362 6.17542C105.895 6.97483 107.05 7.15248 107.938 7.33012" stroke="#002E55" stroke-width="0.4823" stroke-miterlimit="10"/>
<path d="M78.8928 5.73145C77.5605 6.44203 76.1393 7.24144 75.784 8.75143C75.6952 9.10672 75.6952 9.46201 75.6952 9.8173C75.6952 10.3502 75.6952 10.972 75.6952 11.5049C75.6952 12.0379 75.7841 12.5708 76.0505 13.0149C76.4946 13.8143 77.3829 14.1696 78.2711 14.2585C79.1593 14.3473 80.0476 14.0808 80.9358 13.8143" stroke="#002E55" stroke-width="0.4823" stroke-miterlimit="10"/>
<path d="M77.4718 18.6108C77.2941 20.1208 78.0047 21.7196 79.1594 22.6079C80.4029 23.4961 82.0905 23.6738 83.4229 23.052C84.6664 22.4302 85.5547 21.2755 86.7982 20.5649C88.1305 19.7655 89.8181 19.5879 91.3281 20.032" stroke="#002E55" stroke-width="0.4823" stroke-miterlimit="10"/>
<path d="M94.081 23.9399C95.1469 24.4729 96.3016 25.0058 97.0122 25.9829C97.7228 26.8711 98.078 28.2923 97.4563 29.3581C97.0122 30.0687 96.2128 30.5128 95.591 30.957C94.9692 31.4899 94.3475 32.2005 94.4363 32.9999C94.6139 34.0658 95.8574 34.5099 96.6569 35.2205C97.7227 36.1087 98.2557 37.6187 97.9004 38.951C97.7228 39.7504 97.1898 40.461 96.4792 40.7275C95.7686 40.994 94.7916 40.8163 94.4363 40.1057" stroke="#002E55" stroke-width="0.4823" stroke-miterlimit="10"/>
<path d="M89.1052 285.079L86.7958 305.331C86.7958 305.331 81.2888 311.371 78.4465 307.907C77.0253 306.131 72.4065 304.176 71.6959 303.111C73.2948 302.222 77.0253 299.735 77.0253 299.735L76.1371 284.813L89.1052 285.079Z" fill="#F07F58"/>
<path d="M81.5551 285.612L81.7327 289.876C81.7327 289.876 86.7068 306.219 87.151 304.265L88.7498 286.589L81.5551 285.612Z" fill="#C2542D"/>
<path d="M76.7594 299.291L62.9918 308.262C62.3701 308.706 62.8142 309.417 63.7024 309.417C63.7024 309.417 88.5729 309.239 88.5729 308.884C88.8393 306.663 87.6846 301.867 87.6846 301.6C87.6846 300.446 84.0429 303.821 81.6447 304.532C80.3123 304.087 77.2035 298.936 76.7594 299.291Z" fill="#FFE3A6"/>
<path d="M142.931 285.346L147.817 303.466C147.817 303.466 142.043 311.371 139.201 307.818C137.78 306.042 133.161 304.088 132.45 303.022C134.049 302.134 137.78 299.647 137.78 299.647L132.361 285.08L142.931 285.346Z" fill="#F07F58"/>
<path d="M138.846 285.08L139.112 286.678C139.112 286.678 147.462 306.131 147.906 304.265L144.886 285.168H138.846V285.08Z" fill="#C2542D"/>
<path d="M137.602 299.291L123.834 308.262C123.213 308.707 123.657 309.417 124.545 309.417C124.545 309.417 151.369 309.062 151.458 308.707C150.304 305.864 148.971 299.735 147.461 297.426C147.284 297.16 145.507 301.423 143.02 302.134C141.599 301.69 137.957 298.936 137.602 299.291Z" fill="#FFE3A6"/>
<path d="M112.465 103.525C117.706 112.852 120.548 119.691 123.568 131.505C127.121 145.272 153.324 261.541 154.923 286.589C150.57 287.655 123.568 286.945 120.815 286.767C115.574 262.074 99.1418 173.962 95.4112 158.24C94.8783 155.842 90.7924 156.375 91.4142 158.862C97.01 180.268 100.563 260.031 102.695 287.3C95.5889 287.655 75.7813 286.589 73.1166 286.323C70.2743 255.501 55.7073 140.653 78.5348 102.815C89.1048 101.305 101.895 103.17 112.465 103.525Z" fill="#002E55"/>
<g opacity="0.48">
<path d="M108.291 222.548C107.403 217.752 106.426 212.955 105.537 208.336C119.127 209.047 121.17 222.903 119.838 234.184C119.127 240.668 117.351 247.951 114.42 254.613C112.643 245.287 110.6 234.983 108.646 224.68C108.735 223.88 108.557 223.17 108.291 222.548Z" fill="#005BA8"/>
<path d="M70.8067 154.687C69.4743 158.862 68.0532 162.948 66.1879 166.856C66.632 151.756 67.9643 137.455 70.5402 125.464C78.4454 130.527 73.0273 147.848 70.8067 154.687Z" fill="#005BA8"/>
<path d="M87.595 199.187C85.0191 190.483 88.7496 182.666 94.4343 176.36C95.7667 186.93 96.9214 200.342 97.8984 214.198C93.2796 210.024 89.3714 205.138 87.595 199.187Z" fill="#005BA8"/>
<path d="M84.9297 251.948C84.5744 262.163 79.4226 272.022 72.5833 279.394C71.4286 267.67 69.4745 249.905 68.0533 229.92C78.4456 233.029 85.2849 240.579 84.9297 251.948Z" fill="#005BA8"/>
<path d="M118.416 175.561C116.729 168.544 116.551 160.105 118.416 153.088C119.749 148.114 122.324 143.851 125.611 140.209C128.542 152.822 133.694 175.827 138.934 200.165C129.164 194.835 121.17 187.108 118.416 175.561Z" fill="#005BA8"/>
</g>
<path d="M80.044 106.812C80.044 106.812 70.7176 129.817 70.7176 162.415C70.7176 194.924 80.2217 276.996 80.2217 276.996" stroke="white" stroke-width="0.4589" stroke-miterlimit="10"/>
<path d="M143.909 273.976L107.314 105.746" stroke="white" stroke-width="0.4589" stroke-miterlimit="10"/>
<path d="M100.83 106.634C100.83 106.634 101.185 136.39 114.508 134.081" stroke="white" stroke-width="0.4589" stroke-miterlimit="10"/>
<path opacity="0.21" d="M78.8007 107.434L121.88 139.854C121.88 139.854 123.656 122.356 116.017 107.967L78.8007 107.434Z" fill="black"/>
<path d="M69.9186 134.88C83.3308 137.189 84.3079 108.144 84.3079 108.144" stroke="white" stroke-width="0.4589" stroke-miterlimit="10"/>
<path d="M101.275 275.931L72.8513 276.997" stroke="white" stroke-width="0.4589" stroke-miterlimit="10"/>
<path d="M154.123 273.977L117.972 275.487" stroke="white" stroke-width="0.4589" stroke-miterlimit="10"/>
<path d="M57.3948 85.0504C57.2171 85.5833 43.8937 71.5493 43.8937 71.5493C43.8937 71.5493 31.9914 55.7388 31.1032 56.7159C29.8596 58.0482 34.4784 65.0652 34.4784 65.0652C34.4784 65.0652 34.212 65.8646 33.2349 66.3087C32.3467 66.7529 31.8137 67.2858 31.5473 68.5293C31.2808 69.7728 30.0373 70.3946 29.8596 71.1052C29.682 71.8158 34.1231 77.1451 36.699 78.9216C36.699 78.9216 41.0513 84.9616 46.8248 92.245" fill="#F07F58"/>
<path d="M43.45 71.3717C43.45 71.3717 41.0517 64.5323 40.0747 64.7099C39.0976 64.8876 34.6565 66.8417 34.7453 68.5293C34.8341 70.217 38.6535 68.7958 38.6535 68.7958C38.6535 68.7958 37.9429 72.6152 39.897 73.1481C41.7623 73.6811 43.45 71.3717 43.45 71.3717Z" fill="#F07F58"/>
<path d="M37.5881 69.3286C37.5881 69.3286 37.6769 70.3057 36.3445 70.661C36.3445 70.661 35.9893 72.7927 34.2128 72.4374C34.2128 72.4374 34.5681 73.5033 33.4134 73.6809C33.4134 73.6809 38.2986 78.9215 37.5881 69.3286Z" fill="#C2542D"/>
<path d="M38.4766 65.2432C37.4995 65.5985 36.6113 65.9538 35.6342 66.3979C35.3678 66.4867 35.1901 66.5755 34.9236 66.7532C34.6572 66.842 34.4795 67.0196 34.2131 67.1973C33.9466 67.3749 33.7689 67.5526 33.5913 67.9967C33.5025 68.352 33.6801 68.8849 33.8578 69.0626C34.3907 69.5067 34.9236 69.6843 35.4566 69.7731C35.9895 69.862 36.5225 69.862 37.0554 69.862C37.3219 69.862 37.5883 69.862 37.5883 69.862C37.5883 69.7731 37.5883 70.1284 37.5883 70.3061C37.5883 70.839 37.4995 71.2831 37.4995 71.8161H37.5883L37.8548 70.3061L37.9436 69.9508C37.9436 69.862 37.9436 69.6843 37.8548 69.5955C37.5883 69.4178 37.3219 69.5067 37.1442 69.5067C36.1672 69.5067 35.1013 69.4178 34.3019 68.7961C34.1243 68.6184 34.0354 68.352 34.1242 68.1743C34.2131 67.9079 34.3907 67.7302 34.5684 67.6414C34.9236 67.3749 35.4566 67.1973 35.9007 66.9308L38.4766 65.2432Z" fill="#C2542D"/>
<path d="M34.389 64.7988C34.389 65.0653 34.4778 65.2429 34.5666 65.4206C34.6554 65.5982 34.7443 65.6871 34.9219 65.8647C35.0996 65.9535 35.1884 66.1312 35.366 66.22C35.5437 66.3088 35.7213 66.3976 35.9878 66.3976C35.4549 65.7759 35.0108 65.2429 34.389 64.7988Z" fill="#C2542D"/>
<path d="M32.3477 67.2856C32.6142 67.8186 32.8807 68.2627 33.236 68.618C33.5912 69.0621 34.0354 69.4174 34.3907 69.7727C34.8348 70.0392 35.2789 70.3945 35.8118 70.6609C36.0783 70.7497 36.4336 70.8386 36.7 70.8386C36.9665 70.7497 37.3218 70.5721 37.4106 70.3056C37.0554 70.7497 36.4336 70.6609 35.9895 70.3944C35.5454 70.128 35.1012 69.7727 34.6571 69.5062C33.8577 68.7956 33.0583 68.0851 32.3477 67.2856Z" fill="#C2542D"/>
<path d="M36.2571 70.5721C35.9906 71.105 35.7242 71.7268 35.28 71.9044C34.9248 72.0821 34.3918 71.9044 33.9477 71.5491C33.5036 71.2827 33.0595 70.8386 32.6154 70.3944C32.1712 69.9503 31.7271 69.595 31.1942 69.2397C31.5495 69.6839 31.9936 70.2168 32.3489 70.6609C32.793 71.105 33.1483 71.5491 33.6812 71.9044C34.1253 72.2597 34.8359 72.5262 35.4577 72.2597C36.0794 71.9044 36.2571 71.1939 36.2571 70.5721Z" fill="#C2542D"/>
<path d="M34.035 72.2598C33.8573 72.6151 33.6797 72.8815 33.5021 72.9704C33.4132 72.9704 33.4132 72.9704 33.4132 73.0592C33.4132 73.0592 33.3244 73.0592 33.2356 73.0592C33.1468 73.0592 32.9691 73.0592 32.8803 73.0592C32.6138 73.0592 32.3473 72.9704 31.9921 72.8815C31.8144 72.8815 31.6368 72.8815 31.5479 72.8815C31.3703 72.8815 31.2815 72.7927 31.1038 72.7039C31.2815 72.9703 31.6368 73.148 31.9032 73.2368C32.2585 73.3256 32.525 73.5033 32.8803 73.5033C33.2356 73.5033 33.5909 73.5033 33.8573 73.148C34.035 72.8815 34.1238 72.5262 34.035 72.2598Z" fill="#C2542D"/>
<path d="M84.8412 53.3404C84.8412 53.3404 75.426 52.6298 72.6725 58.3145C69.919 63.9992 64.1455 85.9385 64.1455 85.9385L45.5815 71.2827L36.4327 86.4714C36.4327 86.4714 63.4349 116.938 70.4519 114.806C77.5577 112.585 84.9301 61.1569 84.8412 53.3404Z" fill="#4F6EE0"/>
<path d="M72.85 58.1369C75.7812 52.7187 84.9299 53.3405 84.9299 53.3405L79.6894 61.601C77.38 60.4463 75.0706 59.2916 72.85 58.1369Z" fill="#F07F58"/>
<path d="M85.8198 51.8305C84.3986 53.2517 71.9634 76.7897 71.6969 84.0732C71.3416 92.0673 73.2069 111.52 73.2069 111.52C73.2069 111.52 115.22 111.875 116.02 112.141C118.418 90.6461 117.885 62.6669 112.111 59.2916C112.111 59.2916 102.607 49.6987 101.008 48.7217C101.008 48.7217 86.9745 56.8934 85.8198 51.8305Z" fill="#4F6EE0"/>
<path d="M109.27 62.4003C110.335 63.4662 112.112 59.2915 112.112 59.2915C117.885 62.6668 118.329 90.646 116.02 112.141C115.221 111.786 73.2074 111.519 73.2074 111.519C73.2074 111.519 72.8521 107.611 72.4968 102.637C85.1097 87.626 96.479 77.3226 109.27 62.4003Z" fill="#3752B8"/>
<path d="M64.769 87.0043L63.3479 66.3086C63.259 65.3315 62.8149 64.5321 62.0155 63.9104L51.7121 56.4492C50.4686 55.561 49.0474 56.7157 49.225 58.3145L50.8238 75.3685C50.9127 76.5232 51.4456 77.5003 52.3338 78.2109L63.2591 87.0043C63.5255 87.4485 64.769 87.4485 64.769 87.0043Z" fill="white"/>
<path d="M63.5259 87.4483L62.0159 65.9531C61.9271 65.2426 61.5718 64.532 61.0388 64.1767L50.6465 56.8044C49.8471 56.2714 48.9589 57.0708 49.0477 58.0479L50.7354 75.8125C50.913 77.056 51.0907 77.589 51.9789 78.3884C55.2653 81.0531 63.5259 87.8036 63.5259 87.4483Z" fill="#FDC500"/>
<path d="M51.3573 60.6243C51.4461 60.8908 51.3573 61.1572 51.0909 61.246C50.9132 61.3349 50.6467 61.0684 50.5579 60.8019C50.4691 60.5355 50.5579 60.269 50.8244 60.1802C51.0909 60.1802 51.3573 60.3578 51.3573 60.6243Z" fill="#231F61"/>
<path d="M51.5345 60.6241C51.6233 61.0682 51.4457 61.4235 51.1792 61.5124C50.9128 61.6012 50.5574 61.3347 50.4686 60.8906C50.3798 60.4465 50.5575 60.0912 50.8239 60.0024C51.0904 59.9135 51.4457 60.18 51.5345 60.6241Z" stroke="#231F61" stroke-width="0.063891" stroke-miterlimit="10"/>
<path d="M62.5486 67.108C62.8151 67.0192 62.9928 67.108 62.9928 67.3745L63.1704 69.9504C63.1704 70.0392 63.0816 70.2168 62.9928 70.2168C62.8151 70.3056 62.5486 70.2168 62.5486 69.9504L62.371 67.3745C62.4598 67.2857 62.4598 67.1968 62.5486 67.108Z" stroke="#37578A" stroke-width="0.1278" stroke-miterlimit="10"/>
<path d="M62.815 70.8385C63.0815 70.7497 63.2591 70.8385 63.2591 71.105L63.4368 73.6808C63.4368 73.7696 63.348 73.9473 63.2591 73.9473C63.0815 74.0361 62.815 73.9473 62.815 73.6808L62.6374 71.105C62.6374 71.0161 62.7262 70.9273 62.815 70.8385Z" stroke="#37578A" stroke-width="0.1278" stroke-miterlimit="10"/>
<path d="M63.8806 73.8584L62.3707 75.9902L64.4136 79.0101L63.8806 73.8584Z" fill="#020E2B"/>
<path d="M69.6546 100.15C58.7294 88.2478 53.0447 79.632 51.9788 78.0332C51.3571 77.1449 49.7582 74.3026 50.0247 73.9473C50.6465 73.1479 53.9329 78.8326 53.9329 78.4773C53.9329 78.122 49.403 71.9932 49.9359 71.3714C50.6465 70.3944 55.5318 77.2338 55.6206 77.4114C56.9529 79.0991 50.7353 71.0162 51.0906 70.1279C51.4459 69.3285 54.4659 72.7926 54.6435 72.9703C54.6435 72.9703 57.1306 76.1679 57.397 75.9903C57.6635 75.9014 54.1106 67.6409 54.9988 67.7297C55.9759 67.8185 59.0847 73.5032 59.9729 74.6579C60.7723 75.9014 62.3711 77.3226 62.9929 77.3226C63.5258 77.3226 64.414 75.2797 64.2364 74.0361C64.2364 74.0361 66.1905 77.3226 66.457 79.8096C66.6346 81.0532 66.457 82.652 66.457 82.652L75.6946 92.4225L69.6546 100.15Z" fill="#F07F58"/>
<path d="M102.874 66.5753C102.874 66.5753 108.381 55.6501 112.911 60.0024C120.461 67.4635 116.375 93.8439 94.1693 117.116C86.9746 124.666 58.7289 92.1563 58.7289 92.1563L69.6541 81.4087L85.287 97.0416L102.874 66.5753Z" fill="#4F6EE0"/>
<path d="M103.051 66.1308C104.117 64.1767 108.914 56.0939 112.822 60.0021C115.753 62.9332 116.908 68.7067 115.931 76.1678C111.756 72.7037 107.493 69.4173 103.051 66.1308Z" fill="#F07F58"/>
<path d="M72.6745 301.867L75.5168 306.575" stroke="#003B69" stroke-width="0.4435" stroke-miterlimit="10"/>
<path d="M74.4511 300.801L77.2046 305.509" stroke="#003B69" stroke-width="0.4435" stroke-miterlimit="10"/>
<path d="M133.518 301.867L136.272 306.575" stroke="#003B69" stroke-width="0.4435" stroke-miterlimit="10"/>
<path d="M135.206 300.801L138.049 305.509" stroke="#003B69" stroke-width="0.4435" stroke-miterlimit="10"/>
<path d="M157.145 287.389L154.48 268.381L116.109 269.091L118.063 287.744L157.145 287.389Z" fill="#4F6EE0"/>
<path d="M142.311 283.303C147.996 279.484 152.082 274.51 154.48 268.647L157.056 287.3L133.962 287.567C136.982 286.412 139.735 284.991 142.311 283.303Z" fill="#3752B8"/>
<path d="M107.049 287.389L104.384 268.381L66.0126 269.091L67.8779 287.744L107.049 287.389Z" fill="#4F6EE0"/>
<path d="M94.258 279.75C97.8998 276.641 100.564 272.733 102.607 268.381H104.384L106.96 287.3C104.917 287.744 78.9805 287.655 78.9805 287.655C84.4875 285.968 89.9057 283.481 94.258 279.75Z" fill="#3752B8"/>
</svg>
