<svg width="37" height="37" viewBox="0 0 37 37" fill="none" xmlns="http://www.w3.org/2000/svg">
<path d="M26.2083 4.625H24.6667C23.7417 4.625 23.125 5.24167 23.125 6.16667C23.125 7.09167 23.7417 7.70833 24.6667 7.70833H26.2083C27.9042 7.70833 29.2917 9.09583 29.2917 10.7917V12.4875C29.2917 13.4125 29.9083 14.0292 30.8333 14.0292C31.7583 14.0292 32.375 13.4125 32.375 12.4875V10.7917C32.375 7.4 29.6 4.625 26.2083 4.625ZM30.8333 23.125C29.9083 23.125 29.2917 23.7417 29.2917 24.6667V26.2083C29.2917 27.9042 27.9042 29.2917 26.2083 29.2917H24.6667C23.7417 29.2917 23.125 29.9083 23.125 30.8333C23.125 31.7583 23.7417 32.375 24.6667 32.375H26.2083C29.6 32.375 32.375 29.6 32.375 26.2083V24.6667C32.375 23.7417 31.7583 23.125 30.8333 23.125ZM12.3333 29.2917H10.7917C9.09583 29.2917 7.70833 27.9042 7.70833 26.2083V24.6667C7.70833 23.7417 7.09167 23.125 6.16667 23.125C5.24167 23.125 4.625 23.7417 4.625 24.6667V26.2083C4.625 29.6 7.4 32.375 10.7917 32.375H12.3333C13.2583 32.375 13.875 31.7583 13.875 30.8333C13.875 29.9083 13.2583 29.2917 12.3333 29.2917ZM6.16667 13.875C7.09167 13.875 7.70833 13.2583 7.70833 12.3333V10.7917C7.70833 9.09583 9.09583 7.70833 10.7917 7.70833H12.3333C13.2583 7.70833 13.875 7.09167 13.875 6.16667C13.875 5.24167 13.2583 4.625 12.3333 4.625H10.7917C7.4 4.625 4.625 7.4 4.625 10.7917V12.3333C4.625 13.1042 5.24167 13.875 6.16667 13.875Z" fill="url(#paint0_linear_30_267)"/>
<path d="M18.5 12.3333C18.5 10.6375 17.1125 9.25 15.4167 9.25H12.3333C10.6375 9.25 9.25 10.6375 9.25 12.3333V15.4167C9.25 17.1125 10.6375 18.5 12.3333 18.5H15.4167C17.1125 18.5 18.5 17.1125 18.5 15.4167V12.3333ZM12.3333 15.4167V12.3333H15.4167V15.4167H12.3333ZM27.75 24.6667V21.5833C27.75 19.8875 26.3625 18.5 24.6667 18.5H21.5833C19.8875 18.5 18.5 19.8875 18.5 21.5833V24.6667C18.5 26.3625 19.8875 27.75 21.5833 27.75H24.6667C26.3625 27.75 27.75 26.3625 27.75 24.6667ZM21.5833 21.5833H24.6667V24.6667H21.5833V21.5833ZM21.5833 16.9583H23.125C24.05 16.9583 24.6667 16.3417 24.6667 15.4167V12.3333H26.2083C27.1333 12.3333 27.75 11.7167 27.75 10.7917C27.75 9.86667 27.1333 9.25 26.2083 9.25H23.125C22.2 9.25 21.5833 9.86667 21.5833 10.7917V13.875C20.6583 13.875 20.0417 14.4917 20.0417 15.4167C20.0417 16.3417 20.6583 16.9583 21.5833 16.9583ZM15.4167 20.0417H10.7917C9.86667 20.0417 9.25 20.6583 9.25 21.5833C9.25 22.5083 9.86667 23.125 10.7917 23.125H13.875V26.2083C13.875 27.1333 14.4917 27.75 15.4167 27.75C16.3417 27.75 16.9583 27.1333 16.9583 26.2083V21.5833C16.9583 20.6583 16.3417 20.0417 15.4167 20.0417Z" fill="url(#paint1_linear_30_267)"/>
<defs>
<linearGradient id="paint0_linear_30_267" x1="4.625" y1="18.3328" x2="32.375" y2="18.3328" gradientUnits="userSpaceOnUse">
<stop stop-color="#E48E51"/>
<stop offset="1" stop-color="#E8D48F"/>
</linearGradient>
<linearGradient id="paint1_linear_30_267" x1="9.25" y1="18.3886" x2="27.75" y2="18.3886" gradientUnits="userSpaceOnUse">
<stop stop-color="#E48E51"/>
<stop offset="1" stop-color="#E8D48F"/>
</linearGradient>
</defs>
</svg>
