<svg width="85" height="10" viewBox="0 0 85 10" fill="none" xmlns="http://www.w3.org/2000/svg">
<path d="M2 5.5L4.17919 7.46127C5.7605 8.88445 8.17915 8.82085 9.68348 7.31652L14.1716 2.82842C15.7337 1.26633 18.2663 1.26633 19.8284 2.82843L24.1716 7.17158C25.7337 8.73367 28.2663 8.73367 29.8284 7.17157L34.1716 2.82842C35.7337 1.26633 38.2663 1.26633 39.8284 2.82843L44.1716 7.17158C45.7337 8.73367 48.2663 8.73367 49.8284 7.17157L54.1716 2.82842C55.7337 1.26633 58.2663 1.26633 59.8284 2.82843L64.1716 7.17158C65.7337 8.73367 68.2663 8.73367 69.8284 7.17157L74.2919 2.70812C75.8062 1.19381 78.2445 1.14083 79.8232 2.58793L83 5.5" stroke="white" stroke-width="3" stroke-linecap="round"/>
</svg>
