<svg width="92" height="32" viewBox="0 0 92 32" fill="none" xmlns="http://www.w3.org/2000/svg">
<path d="M53.3335 26.3799H54.3256V29.071C54.3256 29.4316 54.2548 29.7446 54.1133 30.0101C53.9717 30.2733 53.7693 30.478 53.506 30.624C53.2428 30.7678 52.9286 30.8396 52.5636 30.8396C52.1964 30.8396 51.8801 30.7678 51.6146 30.624C51.3491 30.478 51.1456 30.2733 51.004 30.0101C50.8647 29.7446 50.795 29.4316 50.795 29.071V26.3799H51.7838V29.0179C51.7838 29.217 51.8148 29.3851 51.8767 29.5223C51.9409 29.6595 52.0316 29.7634 52.1488 29.8342C52.2661 29.9028 52.4043 29.9371 52.5636 29.9371C52.7207 29.9371 52.8567 29.9028 52.9718 29.8342C53.0868 29.7634 53.1753 29.6595 53.2372 29.5223C53.3014 29.3851 53.3335 29.217 53.3335 29.0179V26.3799ZM57.4761 28.0357H57.9274V27.3157C57.9274 27.0502 57.9838 26.829 58.0966 26.652C58.2094 26.475 58.3554 26.3412 58.5346 26.2505C58.7138 26.1598 58.8996 26.1144 59.0921 26.1144C59.331 26.1144 59.5124 26.1465 59.6363 26.2107C59.7624 26.2748 59.842 26.3224 59.8752 26.3534L59.4903 27.0933C59.4792 27.0756 59.4516 27.0502 59.4073 27.017C59.3631 26.9838 59.3045 26.9672 59.2315 26.9672C59.185 26.9672 59.1386 26.9794 59.0921 27.0037C59.0456 27.0281 59.0069 27.0712 58.976 27.1331C58.9472 27.1951 58.9328 27.2858 58.9328 27.4052V28.0357H59.6064V28.8653H58.9328V30.76H57.9274V28.8653H57.4761V28.0357ZM64.5542 27.9561C64.7445 27.9561 64.9303 27.9948 65.1117 28.0722C65.2931 28.1496 65.4424 28.2724 65.5596 28.4405C65.6769 28.6065 65.7355 28.8255 65.7355 29.0976V30.76H64.7234V29.2635C64.7234 29.0688 64.677 28.9228 64.5841 28.8255C64.4912 28.7259 64.3695 28.6761 64.2191 28.6761C64.1195 28.6761 64.0255 28.7027 63.937 28.7558C63.8507 28.8067 63.78 28.8797 63.7247 28.9748C63.6716 29.0677 63.645 29.175 63.645 29.2967V30.76H62.6363V28.0357H63.645V28.4372C63.6716 28.3642 63.7269 28.2912 63.8109 28.2182C63.8972 28.143 64.0045 28.0811 64.1328 28.0324C64.2633 27.9815 64.4038 27.9561 64.5542 27.9561ZM69.932 29.2967C69.932 29.5134 69.9729 29.6871 70.0548 29.8176C70.1366 29.9459 70.2738 30.0101 70.4662 30.0101C70.6631 30.0101 70.8014 29.9459 70.881 29.8176C70.9629 29.6871 71.0038 29.5134 71.0038 29.2967V28.0357H71.9993V29.4028C71.9993 29.6948 71.9384 29.9492 71.8168 30.166C71.6973 30.3806 71.5236 30.5465 71.2958 30.6638C71.0679 30.781 70.7914 30.8396 70.4662 30.8396C70.1432 30.8396 69.8678 30.781 69.64 30.6638C69.4121 30.5465 69.2385 30.3806 69.119 30.166C68.9995 29.9492 68.9398 29.6948 68.9398 29.4028V28.0357H69.932V29.2967ZM76.4684 27.9561C76.6476 27.9561 76.8113 27.9716 76.9595 28.0025C77.1078 28.0313 77.2316 28.0645 77.3312 28.1021C77.4329 28.1397 77.4982 28.1707 77.527 28.195L77.1985 28.789C77.1564 28.758 77.0779 28.7182 76.9629 28.6695C76.85 28.6208 76.7239 28.5965 76.5846 28.5965C76.4784 28.5965 76.3888 28.6131 76.3158 28.6463C76.2428 28.6772 76.2063 28.727 76.2063 28.7956C76.2063 28.8642 76.2461 28.9195 76.3257 28.9615C76.4076 29.0013 76.5248 29.0367 76.6775 29.0677C76.8102 29.0942 76.9452 29.1363 77.0823 29.1938C77.2195 29.2513 77.3334 29.3365 77.4241 29.4493C77.517 29.5599 77.5635 29.7081 77.5635 29.8939C77.5635 30.0842 77.5225 30.2413 77.4407 30.3651C77.3588 30.489 77.2504 30.5852 77.1155 30.6538C76.9806 30.7224 76.8345 30.77 76.6775 30.7965C76.5204 30.8253 76.3678 30.8396 76.2196 30.8396C76.0116 30.8396 75.8302 30.8208 75.6754 30.7832C75.5227 30.7456 75.3988 30.7025 75.3037 30.6538C75.2086 30.6052 75.1422 30.5664 75.1046 30.5377L75.4298 29.874C75.4873 29.9227 75.5814 29.978 75.7119 30.0399C75.8424 30.0997 75.9807 30.1295 76.1267 30.1295C76.2682 30.1295 76.3777 30.1085 76.4552 30.0665C76.5326 30.0245 76.5713 29.9692 76.5713 29.9006C76.5713 29.8453 76.5525 29.801 76.5149 29.7678C76.4773 29.7347 76.4242 29.7059 76.3556 29.6816C76.287 29.6572 76.2041 29.6351 76.1067 29.6152C76.0183 29.5975 75.9242 29.5699 75.8247 29.5323C75.7251 29.4946 75.6311 29.4438 75.5426 29.3796C75.4542 29.3132 75.3823 29.2303 75.327 29.1307C75.2716 29.0312 75.244 28.9106 75.244 28.7691C75.244 28.5877 75.3026 28.4372 75.4199 28.3178C75.5371 28.1983 75.6886 28.1087 75.8745 28.049C76.0603 27.987 76.2583 27.9561 76.4684 27.9561ZM82.6118 28.0357H83.7533L82.4691 29.3365L83.886 30.76H82.718L81.6661 29.665V30.76H80.6573V26.1941H81.6661V28.9847L82.6118 28.0357ZM86.5784 28.0357H87.043V26.9175H88.0418V28.0357H88.6523V28.8653H88.0418V29.6252C88.0418 29.738 88.0583 29.8298 88.0915 29.9006C88.1247 29.9692 88.1855 30.0034 88.274 30.0034C88.3338 30.0034 88.3846 29.9902 88.4267 29.9636C88.4687 29.9371 88.4941 29.9194 88.503 29.9105L88.8481 30.6273C88.8326 30.6406 88.7839 30.6649 88.7021 30.7003C88.6225 30.7357 88.5207 30.7678 88.3968 30.7965C88.2729 30.8253 88.1347 30.8396 87.982 30.8396C87.7099 30.8396 87.4854 30.7633 87.3084 30.6107C87.1314 30.4558 87.043 30.218 87.043 29.8973V28.8653H86.5784V28.0357Z" fill="#372F62"/>
<path d="M8.12229 28.9237C7.21806 28.9237 6.31909 28.8448 5.42537 28.6871C4.54217 28.5294 3.7168 28.2613 2.94926 27.8827C2.18171 27.5042 1.53509 26.9838 1.00937 26.3214L3.81669 23.4037C4.05851 23.6875 4.35291 23.9662 4.69989 24.2395C5.05737 24.5129 5.49371 24.739 6.00891 24.9177C6.53463 25.0965 7.17074 25.1858 7.91726 25.1858C8.6112 25.1858 9.21577 25.0649 9.73097 24.8231C10.2462 24.5813 10.6457 24.229 10.9296 23.7664C11.224 23.3038 11.3712 22.7413 11.3712 22.0789V21.7634H16.0869V22.3627C16.0869 23.7927 15.7294 24.9966 15.0144 25.9744C14.3099 26.9522 13.3584 27.6882 12.1598 28.1824C10.9611 28.6766 9.61531 28.9237 8.12229 28.9237ZM11.3712 22V19.9024C11.2766 20.1127 11.0347 20.4176 10.6457 20.8171C10.2672 21.2167 9.76251 21.5794 9.13166 21.9054C8.5008 22.2208 7.7648 22.3785 6.92366 22.3785C5.66194 22.3785 4.55794 22.0736 3.61166 21.4638C2.66537 20.8434 1.92937 20.0181 1.40366 18.9877C0.877943 17.9467 0.615086 16.7954 0.615086 15.5337C0.615086 14.272 0.877943 13.1259 1.40366 12.0955C1.92937 11.0546 2.66537 10.224 3.61166 9.60366C4.55794 8.98331 5.66194 8.67314 6.92366 8.67314C7.73326 8.67314 8.44297 8.80457 9.0528 9.06743C9.66263 9.31977 10.1568 9.62469 10.5353 9.98217C10.9138 10.3291 11.1767 10.6498 11.3239 10.9442V9.05166H16.0869V22H11.3712ZM5.31497 15.5337C5.31497 16.1225 5.45166 16.6535 5.72503 17.1266C5.9984 17.5893 6.36114 17.952 6.81326 18.2149C7.27589 18.4777 7.78583 18.6091 8.34309 18.6091C8.92137 18.6091 9.43131 18.4777 9.87291 18.2149C10.3145 17.952 10.6615 17.5893 10.9138 17.1266C11.1767 16.6535 11.3081 16.1225 11.3081 15.5337C11.3081 14.9449 11.1767 14.4192 10.9138 13.9566C10.6615 13.4834 10.3145 13.1154 9.87291 12.8526C9.43131 12.5792 8.92137 12.4425 8.34309 12.4425C7.78583 12.4425 7.27589 12.5792 6.81326 12.8526C6.36114 13.1154 5.9984 13.4834 5.72503 13.9566C5.45166 14.4192 5.31497 14.9449 5.31497 15.5337ZM23.5445 22H18.75V9.05166H23.5445V11.0546H23.4657C23.5498 10.8128 23.7548 10.5079 24.0808 10.1399C24.4067 9.76137 24.8641 9.42491 25.4529 9.13051C26.0417 8.8256 26.7619 8.67314 27.6136 8.67314C28.2129 8.67314 28.7649 8.76777 29.2696 8.95703C29.7742 9.13577 30.1422 9.30926 30.3736 9.47749L28.5125 13.373C28.3653 13.1943 28.1025 13.0103 27.724 12.821C27.356 12.6213 26.8933 12.5214 26.3361 12.5214C25.6947 12.5214 25.1637 12.6843 24.7432 13.0103C24.3331 13.3362 24.0282 13.7305 23.8284 14.1931C23.6392 14.6558 23.5445 15.0921 23.5445 15.5022V22ZM35.1442 16.5431C35.1757 17.0057 35.3229 17.4158 35.5858 17.7733C35.8486 18.1307 36.2114 18.4146 36.674 18.6249C37.1471 18.8247 37.7044 18.9246 38.3458 18.9246C38.9556 18.9246 39.5023 18.8615 39.986 18.7353C40.4802 18.6091 40.906 18.4514 41.2635 18.2622C41.6315 18.0729 41.9154 17.8784 42.1151 17.6786L43.9762 20.6437C43.7133 20.9275 43.34 21.2062 42.8564 21.4795C42.3832 21.7424 41.7576 21.9579 40.9796 22.1262C40.2015 22.2944 39.2184 22.3785 38.0303 22.3785C36.6004 22.3785 35.3282 22.1104 34.2136 21.5742C33.0991 21.0379 32.2212 20.2494 31.5798 19.2085C30.9384 18.1675 30.6178 16.8953 30.6178 15.3918C30.6178 14.1301 30.8911 12.9945 31.4379 11.9851C31.9951 10.9653 32.7995 10.1609 33.8509 9.57211C34.9023 8.9728 36.1693 8.67314 37.6518 8.67314C39.0607 8.67314 40.2804 8.93074 41.3108 9.44594C42.3517 9.96114 43.1508 10.7287 43.708 11.7486C44.2758 12.7579 44.5597 14.0197 44.5597 15.5337C44.5597 15.6178 44.5544 15.7861 44.5439 16.0384C44.5439 16.2907 44.5334 16.459 44.5124 16.5431H35.1442ZM40.0491 14.0354C40.0386 13.699 39.9492 13.3678 39.781 13.0418C39.6127 12.7054 39.3604 12.432 39.0239 12.2217C38.6875 12.0009 38.2564 11.8905 37.7307 11.8905C37.205 11.8905 36.7581 11.9957 36.3901 12.2059C36.0326 12.4057 35.7592 12.6686 35.57 12.9945C35.3807 13.3205 35.2756 13.6674 35.2546 14.0354H40.0491Z" fill="#372F62"/>
<path d="M53.6298 22.3785C52.2103 22.3785 50.9486 22.0894 49.8446 21.5111C48.7511 20.9223 47.889 20.1179 47.2581 19.0981C46.6378 18.0677 46.3276 16.8901 46.3276 15.5653C46.3276 14.2405 46.6378 13.0629 47.2581 12.0325C47.889 10.9915 48.7511 10.1714 49.8446 9.57211C50.9486 8.9728 52.2103 8.67314 53.6298 8.67314C55.0492 8.67314 56.3004 8.9728 57.3834 9.57211C58.4663 10.1714 59.3127 10.9915 59.9226 12.0325C60.5324 13.0629 60.8373 14.2405 60.8373 15.5653C60.8373 16.8901 60.5324 18.0677 59.9226 19.0981C59.3127 20.1179 58.4663 20.9223 57.3834 21.5111C56.3004 22.0894 55.0492 22.3785 53.6298 22.3785ZM53.6298 18.4357C54.1765 18.4357 54.6496 18.3147 55.0492 18.0729C55.4487 17.8311 55.7589 17.4894 55.9797 17.0478C56.2005 16.6062 56.3109 16.1067 56.3109 15.5495C56.3109 14.9817 56.2005 14.477 55.9797 14.0354C55.7589 13.5938 55.4487 13.2469 55.0492 12.9945C54.6496 12.7422 54.1765 12.616 53.6298 12.616C53.083 12.616 52.6046 12.7422 52.1946 12.9945C51.795 13.2469 51.4796 13.5938 51.2483 14.0354C51.0275 14.477 50.9171 14.9817 50.9171 15.5495C50.9171 16.1067 51.0275 16.6062 51.2483 17.0478C51.4796 17.4894 51.795 17.8311 52.1946 18.0729C52.6046 18.3147 53.083 18.4357 53.6298 18.4357ZM63.4901 22V9.05166H68.2846V22H63.4901ZM65.9504 6.38629C65.1934 6.38629 64.552 6.12343 64.0263 5.59771C63.5006 5.06148 63.2378 4.42537 63.2378 3.68937C63.2378 2.95337 63.5006 2.31726 64.0263 1.78103C64.5626 1.23428 65.2039 0.960913 65.9504 0.960913C66.4446 0.960913 66.8967 1.08708 67.3068 1.33943C67.7168 1.58126 68.048 1.9072 68.3004 2.31726C68.5527 2.72731 68.6789 3.18469 68.6789 3.68937C68.6789 4.42537 68.4108 5.06148 67.8746 5.59771C67.3383 6.12343 66.697 6.38629 65.9504 6.38629ZM76.3823 22H71.572V0.298514H76.3823V22ZM86.4917 18.6091C87.0911 18.6091 87.5852 18.5093 87.9743 18.3095C88.3633 18.0992 88.6261 17.931 88.7628 17.8048L90.9551 21.0537C90.7868 21.1904 90.4977 21.3691 90.0876 21.5899C89.6776 21.8002 89.1624 21.9842 88.542 22.1419C87.9322 22.2997 87.233 22.3785 86.4444 22.3785C84.9619 22.3785 83.6581 22.0999 82.5331 21.5426C81.4081 20.9749 80.5301 20.1758 79.8993 19.1454C79.2789 18.115 78.9688 16.9058 78.9688 15.5179C78.9688 14.1195 79.2789 12.9104 79.8993 11.8905C80.5301 10.8706 81.4081 10.0821 82.5331 9.5248C83.6581 8.95703 84.9619 8.67314 86.4444 8.67314C87.2225 8.67314 87.9164 8.75726 88.5263 8.92549C89.1466 9.0832 89.6671 9.2672 90.0876 9.47749C90.5082 9.67726 90.8026 9.85074 90.9708 9.99794L88.7313 13.2784C88.6577 13.2048 88.521 13.0997 88.3212 12.963C88.132 12.8263 87.8849 12.7054 87.58 12.6002C87.2751 12.4951 86.9123 12.4425 86.4917 12.4425C85.9765 12.4425 85.4929 12.5739 85.0408 12.8368C84.5992 13.0997 84.2417 13.4624 83.9683 13.925C83.6949 14.3877 83.5583 14.9186 83.5583 15.5179C83.5583 16.1173 83.6949 16.6535 83.9683 17.1266C84.2417 17.5893 84.5992 17.952 85.0408 18.2149C85.4929 18.4777 85.9765 18.6091 86.4917 18.6091Z" fill="url(#paint0_linear_2_4967)"/>
<defs>
<linearGradient id="paint0_linear_2_4967" x1="46" y1="0" x2="46" y2="29" gradientUnits="userSpaceOnUse">
<stop stop-color="#E4C17F"/>
<stop offset="1" stop-color="#E48E51"/>
</linearGradient>
</defs>
</svg>
