<svg width="16" height="16" viewBox="0 0 16 16" fill="none" xmlns="http://www.w3.org/2000/svg">
<path d="M9.81334 2C11.0133 2 11.6133 2 12.2667 2.2C12.9733 2.45333 13.5333 3.01333 13.7867 3.72C14 4.37333 14 4.98667 14 6.18667V9.81334C14 11.0133 14 11.6133 13.8 12.2667C13.5467 12.9733 12.9867 13.5333 12.28 13.7867C11.6133 14 11.0133 14 9.81334 14H6.18667C4.98667 14 4.38667 14 3.73333 13.8C3.01333 13.5333 2.46667 12.9867 2.2 12.2667C2 11.6267 2 11.0267 2 9.81334V6.18667C2 4.98667 2 4.38667 2.2 3.73333C2.46667 3.02667 3.01333 2.46667 3.73333 2.21333C4.37333 2 4.97334 2 6.18667 2H9.81334Z" fill="url(#paint0_linear_136_527)"/>
<mask id="mask0_136_527" style="mask-type:alpha" maskUnits="userSpaceOnUse" x="2" y="2" width="12" height="12">
<path d="M9.81334 2C11.0133 2 11.6133 2 12.2667 2.2C12.9733 2.45333 13.5333 3.01333 13.7867 3.72C14 4.37333 14 4.98667 14 6.18667V9.81334C14 11.0133 14 11.6133 13.8 12.2667C13.5467 12.9733 12.9867 13.5333 12.28 13.7867C11.6133 14 11.0133 14 9.81334 14H6.18667C4.98667 14 4.38667 14 3.73333 13.8C3.01333 13.5333 2.46667 12.9867 2.2 12.2667C2 11.6267 2 11.0267 2 9.81334V6.18667C2 4.98667 2 4.38667 2.2 3.73333C2.46667 3.02667 3.01333 2.46667 3.73333 2.21333C4.37333 2 4.97334 2 6.18667 2H9.81334Z" fill="white"/>
</mask>
<g mask="url(#mask0_136_527)">
<path d="M4.70677 10.4402C4.7201 10.4135 4.74677 10.4002 4.77344 10.3868C4.8801 10.3602 4.98677 10.3335 5.09344 10.3335C5.38677 10.3335 5.65344 10.4402 5.86677 10.6268C5.89344 10.6535 5.89344 10.6935 5.8801 10.7202L5.33344 11.6535C5.22677 11.8402 5.02677 11.9468 4.82677 11.9468C4.70677 11.9468 4.58677 11.9068 4.4801 11.8268C4.2401 11.6535 4.18677 11.3068 4.33344 11.0535L4.70677 10.4402ZM11.8134 9.01351C12.1201 9.01351 12.3868 9.24018 12.4134 9.53351C12.4401 9.88018 12.1734 10.1735 11.8401 10.1735H11.1334L11.6534 11.0668C11.8001 11.3202 11.7468 11.6668 11.5068 11.8402C11.4001 11.9202 11.2801 11.9602 11.1601 11.9602C10.9601 11.9602 10.7601 11.8535 10.6534 11.6668L9.40011 9.49351L8.41344 7.78684C8.40011 7.77351 8.40011 7.76018 8.40011 7.73351C8.40011 7.66684 8.38677 7.60018 8.38677 7.53351C8.38677 7.06684 8.49344 6.60018 8.70677 6.22684C8.73344 6.18684 8.80011 6.18684 8.82677 6.22684L10.4534 9.00018H11.8134V9.01351ZM8.74677 9.04018C9.04011 9.21351 9.22677 9.54685 9.22677 9.92018C9.22677 10.0002 9.21344 10.0668 9.20011 10.1468C9.20011 10.1602 9.17344 10.1735 9.16011 10.1735H4.18677C3.85344 10.1735 3.57344 9.88018 3.61344 9.53351C3.6401 9.22685 3.90677 9.01351 4.21344 9.01351H5.53344L7.33344 5.92018L6.84011 5.08018C6.66677 4.78684 6.78677 4.40018 7.10677 4.26684C7.38677 4.14684 7.70677 4.26684 7.86677 4.52018L8.01344 4.77351L8.17344 4.50684C8.34677 4.21351 8.73344 4.12018 9.01344 4.32018C9.26677 4.49351 9.32011 4.84018 9.16011 5.10684L6.86677 9.01351H8.65344C8.69344 9.01351 8.72011 9.02684 8.74677 9.04018Z" fill="#372F62"/>
</g>
<defs>
<linearGradient id="paint0_linear_136_527" x1="2" y1="8" x2="14" y2="8" gradientUnits="userSpaceOnUse">
<stop stop-color="#E49356"/>
<stop offset="1" stop-color="#E7CB87"/>
</linearGradient>
</defs>
</svg>
