<svg width="175" height="61" viewBox="0 0 175 61" fill="none" xmlns="http://www.w3.org/2000/svg">
<path d="M101.265 49.6683H103.152V54.7872C103.152 55.4731 103.017 56.0686 102.748 56.5735C102.479 57.0743 102.094 57.4635 101.593 57.7412C101.092 58.0147 100.495 58.1515 99.8003 58.1515C99.1018 58.1515 98.5001 58.0147 97.9951 57.7412C97.4902 57.4635 97.1031 57.0743 96.8338 56.5735C96.5687 56.0686 96.4361 55.4731 96.4361 54.7872V49.6683H98.317V54.6862C98.317 55.065 98.376 55.3848 98.4938 55.6457C98.6158 55.9065 98.7883 56.1043 99.0114 56.239C99.2344 56.3694 99.4974 56.4346 99.8003 56.4346C100.099 56.4346 100.358 56.3694 100.577 56.239C100.796 56.1043 100.964 55.9065 101.082 55.6457C101.204 55.3848 101.265 55.065 101.265 54.6862V49.6683ZM109.145 52.8179H110.003V51.4482C110.003 50.9433 110.11 50.5225 110.325 50.1859C110.54 49.8492 110.817 49.5946 111.158 49.4221C111.499 49.2496 111.853 49.1633 112.219 49.1633C112.673 49.1633 113.018 49.2243 113.254 49.3464C113.494 49.4684 113.645 49.5589 113.708 49.6178L112.976 51.0253C112.955 50.9917 112.902 50.9433 112.818 50.8802C112.734 50.817 112.623 50.7855 112.484 50.7855C112.395 50.7855 112.307 50.8086 112.219 50.8549C112.13 50.9012 112.057 50.9833 111.998 51.1011C111.943 51.2189 111.916 51.3914 111.916 51.6187V52.8179H113.197V54.3959H111.916V58H110.003V54.3959H109.145V52.8179ZM122.609 52.6664C122.97 52.6664 123.324 52.7401 123.669 52.8874C124.014 53.0346 124.298 53.2682 124.521 53.588C124.744 53.9036 124.856 54.3202 124.856 54.8377V58H122.93V55.1533C122.93 54.783 122.842 54.5053 122.665 54.3202C122.489 54.1308 122.257 54.0361 121.971 54.0361C121.782 54.0361 121.603 54.0866 121.435 54.1876C121.27 54.2844 121.136 54.4232 121.031 54.6042C120.93 54.7809 120.879 54.985 120.879 55.2164V58H118.96V52.8179H120.879V53.5817C120.93 53.4428 121.035 53.3039 121.195 53.1651C121.359 53.022 121.563 52.9042 121.807 52.8116C122.055 52.7148 122.322 52.6664 122.609 52.6664ZM132.838 55.2164C132.838 55.6288 132.916 55.9591 133.072 56.2074C133.227 56.4515 133.488 56.5735 133.854 56.5735C134.229 56.5735 134.492 56.4515 134.643 56.2074C134.799 55.9591 134.877 55.6288 134.877 55.2164V52.8179H136.77V55.4184C136.77 55.9739 136.655 56.4578 136.423 56.8702C136.196 57.2783 135.866 57.5939 135.432 57.817C134.999 58.04 134.473 58.1515 133.854 58.1515C133.24 58.1515 132.716 58.04 132.283 57.817C131.849 57.5939 131.519 57.2783 131.292 56.8702C131.064 56.4578 130.951 55.9739 130.951 55.4184V52.8179H132.838V55.2164ZM145.271 52.6664C145.612 52.6664 145.924 52.6959 146.206 52.7548C146.488 52.8095 146.723 52.8726 146.913 52.9442C147.106 53.0157 147.23 53.0746 147.285 53.1209L146.66 54.2507C146.58 54.1918 146.431 54.1161 146.212 54.0235C145.997 53.9309 145.757 53.8846 145.492 53.8846C145.29 53.8846 145.12 53.9162 144.981 53.9793C144.842 54.0382 144.773 54.1329 144.773 54.2633C144.773 54.3938 144.849 54.499 145 54.5789C145.156 54.6547 145.379 54.722 145.669 54.7809C145.922 54.8314 146.178 54.9114 146.439 55.0208C146.7 55.1302 146.917 55.2922 147.089 55.5068C147.266 55.7172 147.354 55.9991 147.354 56.3526C147.354 56.7145 147.277 57.0132 147.121 57.2489C146.965 57.4845 146.759 57.6676 146.502 57.798C146.246 57.9285 145.968 58.0189 145.669 58.0694C145.37 58.1241 145.08 58.1515 144.798 58.1515C144.403 58.1515 144.057 58.1157 143.763 58.0442C143.473 57.9726 143.237 57.8906 143.056 57.798C142.875 57.7054 142.749 57.6318 142.677 57.5771L143.296 56.3147C143.405 56.4073 143.584 56.5125 143.832 56.6303C144.081 56.7439 144.344 56.8007 144.621 56.8007C144.891 56.8007 145.099 56.7608 145.246 56.6808C145.393 56.6009 145.467 56.4957 145.467 56.3652C145.467 56.26 145.431 56.1759 145.36 56.1127C145.288 56.0496 145.187 55.9949 145.057 55.9486C144.926 55.9023 144.769 55.8603 144.583 55.8224C144.415 55.7887 144.236 55.7361 144.047 55.6646C143.858 55.5931 143.679 55.4963 143.51 55.3742C143.342 55.248 143.205 55.0902 143.1 54.9009C142.995 54.7115 142.942 54.4822 142.942 54.2129C142.942 53.8678 143.054 53.5817 143.277 53.3544C143.5 53.1272 143.788 52.9568 144.142 52.8432C144.495 52.7253 144.872 52.6664 145.271 52.6664ZM156.957 52.8179H159.128L156.686 55.2922L159.381 58H157.159L155.158 55.9171V58H153.239V49.3148H155.158V54.6231L156.957 52.8179ZM164.502 52.8179H165.386V50.6908H167.286V52.8179H168.447V54.3959H167.286V55.8413C167.286 56.0559 167.317 56.2306 167.381 56.3652C167.444 56.4957 167.559 56.5609 167.728 56.5609C167.841 56.5609 167.938 56.5356 168.018 56.4851C168.098 56.4346 168.146 56.401 168.163 56.3842L168.82 57.7475C168.79 57.7728 168.698 57.8191 168.542 57.8864C168.391 57.9537 168.197 58.0147 167.961 58.0694C167.726 58.1241 167.463 58.1515 167.172 58.1515C166.655 58.1515 166.228 58.0063 165.891 57.716C165.554 57.4214 165.386 56.9691 165.386 56.3589V54.3959H164.502V52.8179Z" fill="#372F62"/>
<path d="M15.45 55.17C13.73 55.17 12.02 55.02 10.32 54.72C8.64 54.42 7.07 53.91 5.61 53.19C4.15 52.47 2.92 51.48 1.92 50.22L7.26 44.67C7.72 45.21 8.28 45.74 8.94 46.26C9.62 46.78 10.45 47.21 11.43 47.55C12.43 47.89 13.64 48.06 15.06 48.06C16.38 48.06 17.53 47.83 18.51 47.37C19.49 46.91 20.25 46.24 20.79 45.36C21.35 44.48 21.63 43.41 21.63 42.15V41.55H30.6V42.69C30.6 45.41 29.92 47.7 28.56 49.56C27.22 51.42 25.41 52.82 23.13 53.76C20.85 54.7 18.29 55.17 15.45 55.17ZM21.63 42V38.01C21.45 38.41 20.99 38.99 20.25 39.75C19.53 40.51 18.57 41.2 17.37 41.82C16.17 42.42 14.77 42.72 13.17 42.72C10.77 42.72 8.67 42.14 6.87 40.98C5.07 39.8 3.67 38.23 2.67 36.27C1.67 34.29 1.17 32.1 1.17 29.7C1.17 27.3 1.67 25.12 2.67 23.16C3.67 21.18 5.07 19.6 6.87 18.42C8.67 17.24 10.77 16.65 13.17 16.65C14.71 16.65 16.06 16.9 17.22 17.4C18.38 17.88 19.32 18.46 20.04 19.14C20.76 19.8 21.26 20.41 21.54 20.97V17.37H30.6V42H21.63ZM10.11 29.7C10.11 30.82 10.37 31.83 10.89 32.73C11.41 33.61 12.1 34.3 12.96 34.8C13.84 35.3 14.81 35.55 15.87 35.55C16.97 35.55 17.94 35.3 18.78 34.8C19.62 34.3 20.28 33.61 20.76 32.73C21.26 31.83 21.51 30.82 21.51 29.7C21.51 28.58 21.26 27.58 20.76 26.7C20.28 25.8 19.62 25.1 18.78 24.6C17.94 24.08 16.97 23.82 15.87 23.82C14.81 23.82 13.84 24.08 12.96 24.6C12.1 25.1 11.41 25.8 10.89 26.7C10.37 27.58 10.11 28.58 10.11 29.7ZM44.7858 42H35.6658V17.37H44.7858V21.18H44.6358C44.7958 20.72 45.1858 20.14 45.8058 19.44C46.4258 18.72 47.2958 18.08 48.4158 17.52C49.5358 16.94 50.9058 16.65 52.5258 16.65C53.6658 16.65 54.7158 16.83 55.6758 17.19C56.6358 17.53 57.3358 17.86 57.7758 18.18L54.2358 25.59C53.9558 25.25 53.4558 24.9 52.7358 24.54C52.0358 24.16 51.1558 23.97 50.0958 23.97C48.8758 23.97 47.8658 24.28 47.0658 24.9C46.2858 25.52 45.7058 26.27 45.3258 27.15C44.9658 28.03 44.7858 28.86 44.7858 29.64V42ZM66.8503 31.62C66.9103 32.5 67.1903 33.28 67.6903 33.96C68.1903 34.64 68.8803 35.18 69.7603 35.58C70.6603 35.96 71.7203 36.15 72.9403 36.15C74.1003 36.15 75.1403 36.03 76.0603 35.79C77.0003 35.55 77.8103 35.25 78.4903 34.89C79.1903 34.53 79.7303 34.16 80.1103 33.78L83.6503 39.42C83.1503 39.96 82.4403 40.49 81.5203 41.01C80.6203 41.51 79.4303 41.92 77.9503 42.24C76.4703 42.56 74.6003 42.72 72.3403 42.72C69.6203 42.72 67.2003 42.21 65.0803 41.19C62.9603 40.17 61.2903 38.67 60.0703 36.69C58.8503 34.71 58.2403 32.29 58.2403 29.43C58.2403 27.03 58.7603 24.87 59.8003 22.95C60.8603 21.01 62.3903 19.48 64.3903 18.36C66.3903 17.22 68.8003 16.65 71.6203 16.65C74.3003 16.65 76.6203 17.14 78.5803 18.12C80.5603 19.1 82.0803 20.56 83.1403 22.5C84.2203 24.42 84.7603 26.82 84.7603 29.7C84.7603 29.86 84.7503 30.18 84.7303 30.66C84.7303 31.14 84.7103 31.46 84.6703 31.62H66.8503ZM76.1803 26.85C76.1603 26.21 75.9903 25.58 75.6703 24.96C75.3503 24.32 74.8703 23.8 74.2303 23.4C73.5903 22.98 72.7703 22.77 71.7703 22.77C70.7703 22.77 69.9203 22.97 69.2203 23.37C68.5403 23.75 68.0203 24.25 67.6603 24.87C67.3003 25.49 67.1003 26.15 67.0603 26.85H76.1803Z" fill="#372F62"/>
<path d="M102.013 42.72C99.3131 42.72 96.9131 42.17 94.8131 41.07C92.7331 39.95 91.0931 38.42 89.8931 36.48C88.7131 34.52 88.1231 32.28 88.1231 29.76C88.1231 27.24 88.7131 25 89.8931 23.04C91.0931 21.06 92.7331 19.5 94.8131 18.36C96.9131 17.22 99.3131 16.65 102.013 16.65C104.713 16.65 107.093 17.22 109.153 18.36C111.213 19.5 112.823 21.06 113.983 23.04C115.143 25 115.723 27.24 115.723 29.76C115.723 32.28 115.143 34.52 113.983 36.48C112.823 38.42 111.213 39.95 109.153 41.07C107.093 42.17 104.713 42.72 102.013 42.72ZM102.013 35.22C103.053 35.22 103.953 34.99 104.713 34.53C105.473 34.07 106.063 33.42 106.483 32.58C106.903 31.74 107.113 30.79 107.113 29.73C107.113 28.65 106.903 27.69 106.483 26.85C106.063 26.01 105.473 25.35 104.713 24.87C103.953 24.39 103.053 24.15 102.013 24.15C100.973 24.15 100.063 24.39 99.2831 24.87C98.5231 25.35 97.9231 26.01 97.4831 26.85C97.0631 27.69 96.8531 28.65 96.8531 29.73C96.8531 30.79 97.0631 31.74 97.4831 32.58C97.9231 33.42 98.5231 34.07 99.2831 34.53C100.063 34.99 100.973 35.22 102.013 35.22ZM120.769 42V17.37H129.889V42H120.769ZM125.449 12.3C124.009 12.3 122.789 11.8 121.789 10.8C120.789 9.78 120.289 8.57 120.289 7.17C120.289 5.77 120.789 4.56 121.789 3.54C122.809 2.5 124.029 1.98 125.449 1.98C126.389 1.98 127.249 2.22 128.029 2.7C128.809 3.16 129.439 3.78 129.919 4.56C130.399 5.34 130.639 6.21 130.639 7.17C130.639 8.57 130.129 9.78 129.109 10.8C128.089 11.8 126.869 12.3 125.449 12.3ZM145.292 42H136.142V0.719999H145.292V42ZM164.522 35.55C165.662 35.55 166.602 35.36 167.342 34.98C168.082 34.58 168.582 34.26 168.842 34.02L173.012 40.2C172.692 40.46 172.142 40.8 171.362 41.22C170.582 41.62 169.602 41.97 168.422 42.27C167.262 42.57 165.932 42.72 164.432 42.72C161.612 42.72 159.132 42.19 156.992 41.13C154.852 40.05 153.182 38.53 151.982 36.57C150.802 34.61 150.212 32.31 150.212 29.67C150.212 27.01 150.802 24.71 151.982 22.77C153.182 20.83 154.852 19.33 156.992 18.27C159.132 17.19 161.612 16.65 164.432 16.65C165.912 16.65 167.232 16.81 168.392 17.13C169.572 17.43 170.562 17.78 171.362 18.18C172.162 18.56 172.722 18.89 173.042 19.17L168.782 25.41C168.642 25.27 168.382 25.07 168.002 24.81C167.642 24.55 167.172 24.32 166.592 24.12C166.012 23.92 165.322 23.82 164.522 23.82C163.542 23.82 162.622 24.07 161.762 24.57C160.922 25.07 160.242 25.76 159.722 26.64C159.202 27.52 158.942 28.53 158.942 29.67C158.942 30.81 159.202 31.83 159.722 32.73C160.242 33.61 160.922 34.3 161.762 34.8C162.622 35.3 163.542 35.55 164.522 35.55Z" fill="white"/>
</svg>
