<svg width="430" height="322" viewBox="0 0 430 322" fill="none" xmlns="http://www.w3.org/2000/svg">
<path d="M0.862061 59.0862C0.862061 26.4538 27.3159 0 59.9483 0C92.5807 0 119.034 26.4538 119.034 59.0862V322H0.862061V59.0862Z" fill="url(#paint0_linear_2_4900)"/>
<path d="M157.104 153.862C157.104 121.887 183.025 95.9656 215 95.9656C246.975 95.9656 272.897 121.887 272.897 153.862V322H157.104V153.862Z" fill="url(#paint1_linear_2_4900)"/>
<path d="M310.966 114.603C310.966 81.971 337.419 55.5172 370.052 55.5172C402.684 55.5172 429.138 81.971 429.138 114.603V322H310.966V114.603Z" fill="url(#paint2_linear_2_4900)"/>
<g filter="url(#filter0_bd_2_4900)">
<rect x="107.138" y="172.103" width="215.724" height="106.276" rx="23.7931" fill="white" fill-opacity="0.1" shape-rendering="crispEdges"/>
</g>
<path d="M133.215 259.472L133.215 262.098L131.462 262.098L131.462 254.872L133.215 254.872L133.215 257.49L141.931 257.49L141.931 259.472L133.215 259.472ZM135.229 249.314C135.229 248.87 135.322 248.436 135.507 248.013C135.687 247.591 135.975 247.244 136.371 246.975C136.768 246.7 137.286 246.562 137.926 246.562L141.931 246.562L141.931 248.585L138.275 248.585C137.741 248.585 137.344 248.706 137.085 248.949C136.826 249.187 136.697 249.507 136.697 249.909C136.697 250.179 136.771 250.438 136.919 250.686C137.061 250.929 137.262 251.13 137.521 251.289C137.775 251.442 138.066 251.519 138.394 251.519L141.931 251.519L141.931 253.541L131.018 253.541L131.018 251.519L136.459 251.519C136.279 251.466 136.094 251.337 135.903 251.13C135.713 250.924 135.554 250.662 135.428 250.345C135.295 250.028 135.229 249.684 135.229 249.314ZM141.931 244.864L135.42 244.864L135.42 242.857L141.931 242.857L141.931 244.864ZM133.738 243.833C133.738 244.166 133.622 244.449 133.389 244.681C133.157 244.909 132.879 245.023 132.557 245.023C132.234 245.023 131.954 244.906 131.716 244.674C131.478 244.441 131.359 244.161 131.359 243.833C131.359 243.616 131.414 243.418 131.526 243.238C131.631 243.058 131.774 242.913 131.954 242.802C132.134 242.691 132.334 242.635 132.557 242.635C132.879 242.635 133.157 242.754 133.389 242.992C133.622 243.225 133.738 243.505 133.738 243.833ZM135.229 238.289C135.229 237.897 135.266 237.535 135.34 237.202C135.409 236.869 135.488 236.589 135.578 236.361C135.668 236.129 135.745 235.975 135.808 235.901L137.022 236.591C136.937 236.697 136.837 236.888 136.72 237.162C136.604 237.432 136.546 237.734 136.546 238.067C136.546 238.368 136.599 238.622 136.704 238.828C136.805 239.034 136.958 239.137 137.164 239.137C137.371 239.137 137.535 239.026 137.656 238.804C137.778 238.582 137.884 238.273 137.973 237.876C138.042 237.543 138.148 237.215 138.291 236.893C138.428 236.57 138.629 236.303 138.893 236.092C139.153 235.88 139.499 235.775 139.932 235.775C140.361 235.775 140.718 235.867 141.003 236.052C141.283 236.232 141.505 236.472 141.669 236.774C141.833 237.075 141.95 237.406 142.018 237.765C142.087 238.125 142.121 238.482 142.121 238.836C142.121 239.296 142.076 239.7 141.987 240.049C141.902 240.398 141.804 240.686 141.693 240.914C141.577 241.136 141.479 241.295 141.4 241.39L140.051 240.7C140.173 240.562 140.308 240.338 140.456 240.026C140.599 239.708 140.67 239.367 140.67 239.002C140.67 238.622 140.604 238.323 140.472 238.106C140.34 237.884 140.162 237.773 139.94 237.773C139.776 237.773 139.644 237.826 139.544 237.932C139.438 238.038 139.351 238.183 139.282 238.368C139.213 238.553 139.153 238.77 139.1 239.018C139.052 239.246 138.983 239.478 138.893 239.716C138.798 239.954 138.674 240.176 138.521 240.382C138.367 240.589 138.177 240.755 137.95 240.882C137.717 241.009 137.439 241.072 137.117 241.072C136.704 241.072 136.361 240.94 136.086 240.676C135.806 240.412 135.594 240.068 135.451 239.645C135.303 239.222 135.229 238.77 135.229 238.289ZM131.462 219.743L141.931 219.743L141.931 221.717L135.229 221.717L133.707 221.622L135.436 221.979L141.186 224.033L141.186 225.984L135.436 228.031L133.707 228.379L135.229 228.292L141.931 228.292L141.931 230.275L131.462 230.275L131.462 227.531L138.925 225.136L139.639 225.009L138.925 224.882L131.462 222.479L131.462 219.743ZM142.121 214.547C142.121 215.239 141.973 215.858 141.677 216.403C141.381 216.942 140.977 217.365 140.464 217.672C139.946 217.978 139.356 218.132 138.695 218.132C138.034 218.132 137.445 217.978 136.927 217.672C136.403 217.365 135.991 216.942 135.689 216.403C135.383 215.858 135.229 215.239 135.229 214.547C135.229 213.849 135.383 213.233 135.689 212.699C135.991 212.165 136.403 211.747 136.927 211.446C137.445 211.144 138.034 210.994 138.695 210.994C139.356 210.994 139.946 211.144 140.464 211.446C140.977 211.747 141.381 212.165 141.677 212.699C141.973 213.233 142.121 213.849 142.121 214.547ZM140.448 214.547C140.448 214.214 140.374 213.925 140.226 213.682C140.073 213.434 139.864 213.243 139.599 213.111C139.33 212.974 139.026 212.905 138.687 212.905C138.349 212.905 138.045 212.974 137.775 213.111C137.506 213.243 137.294 213.434 137.141 213.682C136.982 213.925 136.903 214.214 136.903 214.547C136.903 214.88 136.982 215.171 137.141 215.419C137.294 215.662 137.506 215.853 137.775 215.99C138.045 216.128 138.349 216.196 138.687 216.196C139.026 216.196 139.33 216.128 139.599 215.99C139.864 215.853 140.073 215.662 140.226 215.419C140.374 215.171 140.448 214.88 140.448 214.547ZM135.229 205.486C135.229 205.042 135.322 204.608 135.507 204.185C135.687 203.762 135.975 203.416 136.371 203.146C136.768 202.871 137.286 202.734 137.926 202.734L141.931 202.734L141.931 204.756L138.275 204.756C137.741 204.756 137.344 204.883 137.085 205.137C136.826 205.385 136.697 205.713 136.697 206.12C136.697 206.385 136.771 206.638 136.919 206.882C137.061 207.119 137.262 207.315 137.521 207.468C137.775 207.616 138.066 207.691 138.394 207.691L141.931 207.691L141.931 209.705L135.42 209.705L135.42 207.691L136.459 207.691C136.279 207.632 136.094 207.5 135.903 207.294C135.713 207.088 135.554 206.826 135.428 206.509C135.295 206.192 135.229 205.851 135.229 205.486ZM135.42 201.724L135.42 200.55L132.747 200.55L132.747 198.551L135.42 198.551L135.42 197.012L137.093 197.012L137.093 198.551L139.449 198.551C139.761 198.551 140.004 198.501 140.178 198.4C140.347 198.3 140.432 198.141 140.432 197.925C140.432 197.761 140.4 197.626 140.337 197.52C140.268 197.414 140.221 197.351 140.194 197.33L141.638 196.616C141.669 196.648 141.725 196.751 141.804 196.925C141.883 197.094 141.955 197.314 142.018 197.584C142.087 197.848 142.121 198.147 142.121 198.48C142.121 199.077 141.95 199.572 141.606 199.963C141.257 200.354 140.718 200.55 139.988 200.55L137.093 200.55L137.093 201.724L135.42 201.724ZM135.229 191.396C135.229 190.952 135.322 190.518 135.507 190.095C135.687 189.672 135.975 189.326 136.371 189.056C136.768 188.781 137.286 188.644 137.926 188.644L141.931 188.644L141.931 190.666L138.275 190.666C137.741 190.666 137.344 190.788 137.085 191.031C136.826 191.269 136.697 191.589 136.697 191.991C136.697 192.26 136.771 192.52 136.919 192.768C137.061 193.011 137.262 193.212 137.521 193.371C137.775 193.524 138.066 193.601 138.394 193.601L141.931 193.601L141.931 195.623L131.018 195.623L131.018 193.601L136.459 193.601C136.279 193.548 136.094 193.418 135.903 193.212C135.713 193.006 135.554 192.744 135.428 192.427C135.295 192.11 135.229 191.766 135.229 191.396Z" fill="#E4AC6E"/>
<path d="M191.716 215.375C191.854 215.804 192.046 216.218 192.291 216.617C192.536 217.016 192.843 217.376 193.211 217.698C193.579 218.02 194.024 218.273 194.545 218.457C195.066 218.641 195.68 218.733 196.385 218.733C197.811 218.733 198.915 218.281 199.697 217.376C200.494 216.456 200.885 215.268 200.87 213.811C200.855 212.416 200.471 211.319 199.72 210.522C198.984 209.725 197.972 209.326 196.684 209.326C195.856 209.326 195.143 209.472 194.545 209.763C193.947 210.054 193.456 210.392 193.073 210.775C192.705 211.158 192.444 211.511 192.291 211.833L186.61 209.763L189.301 193.571H206.367V199.551H195.074L194.131 205.278C194.208 205.171 194.445 205.002 194.844 204.772C195.258 204.542 195.795 204.335 196.454 204.151C197.129 203.952 197.888 203.852 198.731 203.852C200.234 203.852 201.675 204.182 203.055 204.841C204.435 205.5 205.57 206.535 206.459 207.946C207.348 209.357 207.793 211.181 207.793 213.42C207.793 215.659 207.31 217.614 206.344 219.285C205.393 220.941 204.082 222.221 202.411 223.126C200.74 224.031 198.823 224.483 196.661 224.483C195.02 224.483 193.579 224.291 192.337 223.908C191.11 223.509 190.06 222.988 189.186 222.344C188.312 221.7 187.599 221.002 187.047 220.251C186.51 219.484 186.104 218.733 185.828 217.997L191.716 215.375ZM224.01 208.245L235.556 223.931H227.345L218.007 210.66V223.931H211.13V193.571H218.007V205.991L226.609 193.571H234.36L224.01 208.245ZM251.086 211.488V218.112H245.405V211.488H238.781V205.853H245.405V199.229H251.086V205.853H257.664V211.488H251.086Z" fill="white"/>
<path d="M186.118 239.181H191.689C192.747 239.181 193.703 239.362 194.557 239.726C195.42 240.09 196.105 240.648 196.613 241.401C197.12 242.146 197.374 243.097 197.374 244.256C197.374 245.407 197.12 246.376 196.613 247.162C196.105 247.949 195.42 248.546 194.557 248.952C193.703 249.349 192.747 249.548 191.689 249.548H189.278V255.931H186.118V239.181ZM189.278 246.997H190.814C191.406 246.997 191.939 246.913 192.412 246.744C192.895 246.566 193.28 246.283 193.567 245.893C193.855 245.504 193.999 244.984 193.999 244.333C193.999 243.673 193.855 243.157 193.567 242.784C193.28 242.404 192.895 242.133 192.412 241.972C191.939 241.803 191.406 241.719 190.814 241.719H189.278V246.997ZM207.09 255.931V254.116C207.014 254.302 206.819 254.565 206.506 254.903C206.193 255.241 205.77 255.55 205.237 255.829C204.713 256.1 204.095 256.235 203.385 256.235C202.387 256.235 201.502 255.999 200.733 255.525C199.963 255.043 199.358 254.387 198.918 253.558C198.487 252.72 198.271 251.777 198.271 250.728C198.271 249.679 198.487 248.74 198.918 247.911C199.358 247.074 199.963 246.414 200.733 245.931C201.502 245.449 202.387 245.208 203.385 245.208C204.078 245.208 204.679 245.327 205.187 245.563C205.703 245.792 206.117 246.063 206.43 246.376C206.752 246.68 206.959 246.955 207.052 247.2V245.513H210.25V255.931H207.09ZM201.431 250.728C201.431 251.312 201.562 251.828 201.824 252.276C202.086 252.716 202.433 253.059 202.865 253.304C203.296 253.55 203.765 253.672 204.273 253.672C204.806 253.672 205.28 253.55 205.694 253.304C206.109 253.05 206.435 252.704 206.671 252.264C206.917 251.815 207.039 251.303 207.039 250.728C207.039 250.153 206.917 249.645 206.671 249.205C206.435 248.757 206.109 248.406 205.694 248.152C205.28 247.898 204.806 247.771 204.273 247.771C203.765 247.771 203.296 247.898 202.865 248.152C202.433 248.398 202.086 248.744 201.824 249.193C201.562 249.633 201.431 250.144 201.431 250.728ZM212.008 245.513H213.886V241.236H217.083V245.513H219.545V248.19H217.083V251.959C217.083 252.458 217.164 252.847 217.325 253.127C217.485 253.397 217.739 253.533 218.086 253.533C218.348 253.533 218.564 253.482 218.733 253.38C218.902 253.27 219.004 253.194 219.038 253.152L220.18 255.461C220.129 255.512 219.964 255.601 219.685 255.728C219.414 255.855 219.063 255.969 218.632 256.071C218.209 256.181 217.731 256.235 217.198 256.235C216.242 256.235 215.451 255.961 214.825 255.411C214.199 254.852 213.886 253.989 213.886 252.822V248.19H212.008V245.513ZM221.971 255.931V245.513H225.182V255.931H221.971ZM223.621 242.823C223.088 242.823 222.635 242.636 222.263 242.264C221.899 241.892 221.717 241.448 221.717 240.932C221.717 240.416 221.903 239.967 222.276 239.587C222.648 239.206 223.096 239.016 223.621 239.016C223.968 239.016 224.285 239.104 224.573 239.282C224.86 239.451 225.093 239.68 225.27 239.967C225.448 240.255 225.537 240.576 225.537 240.932C225.537 241.448 225.347 241.892 224.966 242.264C224.594 242.636 224.145 242.823 223.621 242.823ZM230.512 251.439C230.537 251.913 230.664 252.336 230.893 252.708C231.121 253.08 231.451 253.372 231.882 253.583C232.322 253.795 232.847 253.901 233.456 253.901C234.006 253.901 234.488 253.833 234.903 253.698C235.326 253.562 235.681 253.397 235.968 253.203C236.265 253 236.485 252.805 236.628 252.619L237.961 254.599C237.724 254.895 237.407 255.17 237.009 255.423C236.62 255.669 236.121 255.863 235.512 256.007C234.911 256.159 234.158 256.235 233.253 256.235C232.111 256.235 231.108 256.011 230.245 255.563C229.383 255.115 228.71 254.467 228.228 253.621C227.746 252.775 227.504 251.769 227.504 250.601C227.504 249.586 227.72 248.672 228.152 247.86C228.583 247.04 229.209 246.393 230.03 245.919C230.859 245.445 231.853 245.208 233.012 245.208C234.103 245.208 235.046 245.42 235.842 245.843C236.645 246.257 237.267 246.866 237.707 247.67C238.147 248.474 238.367 249.455 238.367 250.614C238.367 250.682 238.363 250.821 238.354 251.033C238.354 251.236 238.346 251.371 238.329 251.439H230.512ZM235.347 249.447C235.338 249.176 235.254 248.884 235.093 248.571C234.941 248.258 234.699 247.991 234.37 247.771C234.04 247.552 233.6 247.442 233.05 247.442C232.5 247.442 232.047 247.547 231.692 247.759C231.345 247.97 231.083 248.233 230.905 248.546C230.728 248.85 230.626 249.15 230.601 249.447H235.347ZM247.18 245.208C247.891 245.208 248.584 245.356 249.261 245.652C249.938 245.94 250.492 246.401 250.923 247.035C251.363 247.67 251.583 248.499 251.583 249.523V255.931H248.347V250.081C248.347 249.227 248.144 248.592 247.738 248.178C247.341 247.763 246.816 247.556 246.165 247.556C245.742 247.556 245.336 247.674 244.947 247.911C244.566 248.139 244.253 248.461 244.008 248.875C243.771 249.282 243.652 249.747 243.652 250.271V255.931H240.429V245.513H243.652V247.175C243.745 246.887 243.957 246.591 244.287 246.287C244.617 245.982 245.035 245.728 245.543 245.525C246.051 245.314 246.596 245.208 247.18 245.208ZM253.199 245.513H255.077V241.236H258.275V245.513H260.737V248.19H258.275V251.959C258.275 252.458 258.356 252.847 258.516 253.127C258.677 253.397 258.931 253.533 259.278 253.533C259.54 253.533 259.756 253.482 259.925 253.38C260.094 253.27 260.196 253.194 260.229 253.152L261.372 255.461C261.321 255.512 261.156 255.601 260.877 255.728C260.606 255.855 260.255 255.969 259.823 256.071C259.4 256.181 258.922 256.235 258.389 256.235C257.434 256.235 256.643 255.961 256.017 255.411C255.391 254.852 255.077 253.989 255.077 252.822V248.19H253.199V245.513ZM267.363 245.208C267.989 245.208 268.569 245.267 269.102 245.386C269.635 245.496 270.083 245.623 270.447 245.767C270.819 245.91 271.064 246.033 271.183 246.135L270.079 248.076C269.91 247.941 269.605 247.78 269.165 247.594C268.734 247.408 268.252 247.315 267.719 247.315C267.236 247.315 266.83 247.399 266.5 247.568C266.17 247.729 266.005 247.975 266.005 248.304C266.005 248.634 266.183 248.897 266.538 249.091C266.894 249.286 267.389 249.455 268.023 249.599C268.556 249.709 269.081 249.878 269.597 250.106C270.113 250.326 270.54 250.648 270.878 251.071C271.217 251.485 271.386 252.039 271.386 252.733C271.386 253.418 271.238 253.989 270.942 254.446C270.654 254.895 270.269 255.25 269.787 255.512C269.305 255.774 268.776 255.961 268.201 256.071C267.626 256.181 267.054 256.235 266.488 256.235C265.752 256.235 265.104 256.164 264.546 256.02C263.988 255.884 263.527 255.728 263.163 255.55C262.808 255.364 262.554 255.208 262.402 255.081L263.506 252.923C263.726 253.118 264.085 253.334 264.584 253.571C265.092 253.799 265.637 253.913 266.221 253.913C266.83 253.913 267.308 253.808 267.655 253.596C268.01 253.385 268.188 253.101 268.188 252.746C268.188 252.484 268.103 252.272 267.934 252.111C267.765 251.942 267.532 251.803 267.236 251.693C266.94 251.583 266.593 251.485 266.196 251.401C265.832 251.325 265.46 251.215 265.079 251.071C264.698 250.919 264.343 250.72 264.013 250.474C263.683 250.229 263.417 249.925 263.214 249.561C263.011 249.189 262.909 248.744 262.909 248.228C262.909 247.568 263.121 247.019 263.544 246.579C263.967 246.13 264.517 245.792 265.193 245.563C265.87 245.327 266.593 245.208 267.363 245.208Z" fill="white"/>
<line x1="161.466" y1="180.431" x2="161.466" y2="270.052" stroke="white" stroke-width="0.793103" stroke-linecap="round" stroke-dasharray="7.14 7.14"/>
<defs>
<filter id="filter0_bd_2_4900" x="91.2759" y="156.241" width="247.448" height="138" filterUnits="userSpaceOnUse" color-interpolation-filters="sRGB">
<feFlood flood-opacity="0" result="BackgroundImageFix"/>
<feGaussianBlur in="BackgroundImageFix" stdDeviation="5.94828"/>
<feComposite in2="SourceAlpha" operator="in" result="effect1_backgroundBlur_2_4900"/>
<feColorMatrix in="SourceAlpha" type="matrix" values="0 0 0 0 0 0 0 0 0 0 0 0 0 0 0 0 0 0 127 0" result="hardAlpha"/>
<feOffset/>
<feGaussianBlur stdDeviation="7.93103"/>
<feComposite in2="hardAlpha" operator="out"/>
<feColorMatrix type="matrix" values="0 0 0 0 0 0 0 0 0 0 0 0 0 0 0 0 0 0 0.25 0"/>
<feBlend mode="normal" in2="effect1_backgroundBlur_2_4900" result="effect2_dropShadow_2_4900"/>
<feBlend mode="normal" in="SourceGraphic" in2="effect2_dropShadow_2_4900" result="shape"/>
</filter>
<linearGradient id="paint0_linear_2_4900" x1="59.9483" y1="0" x2="59.9483" y2="322" gradientUnits="userSpaceOnUse">
<stop stop-color="#E6AD6D"/>
<stop offset="1" stop-color="#D9D9D9" stop-opacity="0"/>
</linearGradient>
<linearGradient id="paint1_linear_2_4900" x1="215" y1="95.9656" x2="215" y2="322" gradientUnits="userSpaceOnUse">
<stop stop-color="#A98AFF"/>
<stop offset="1" stop-color="#D9D9D9" stop-opacity="0"/>
</linearGradient>
<linearGradient id="paint2_linear_2_4900" x1="370.052" y1="55.5172" x2="370.052" y2="322" gradientUnits="userSpaceOnUse">
<stop stop-color="#E957C9"/>
<stop offset="1" stop-color="#D9D9D9" stop-opacity="0"/>
</linearGradient>
</defs>
</svg>
