<svg width="14" height="14" viewBox="0 0 14 14" fill="none" xmlns="http://www.w3.org/2000/svg">
<path d="M3.55843 0.816829L10.3251 4.72516L8.4001 6.65016L2.33343 0.641829C2.4501 0.641829 2.6251 0.583496 2.74176 0.583496C3.03343 0.583496 3.3251 0.641829 3.55843 0.816829ZM1.2251 11.9002V2.10016C1.2251 1.6335 1.45843 1.22516 1.80843 0.933496L7.93343 7.0585L1.86676 13.1252C1.45843 12.8335 1.2251 12.3668 1.2251 11.9002ZM3.55843 13.2418C3.20843 13.4168 2.8001 13.4752 2.4501 13.4168L8.4001 7.52516L10.2668 9.39183L3.55843 13.2418ZM12.0168 8.34183L10.7918 9.04183L8.7501 7.0585L10.7918 5.01683L11.9584 5.71683C12.4251 6.0085 12.7168 6.47516 12.7168 7.0585C12.7751 7.52516 12.4834 8.05016 12.0168 8.34183Z" fill="url(#paint0_linear_136_525)"/>
<defs>
<linearGradient id="paint0_linear_136_525" x1="1.2251" y1="7.0111" x2="12.7242" y2="7.0111" gradientUnits="userSpaceOnUse">
<stop stop-color="#E49356"/>
<stop offset="1" stop-color="#E7CB87"/>
</linearGradient>
</defs>
</svg>
